<svg xmlns="http://www.w3.org/2000/svg" width="256" height="256" viewBox="0 0 100 100"><rect width="100" height="100" rx="0" fill="#f6aa25"/><path d="M21.56 57.62V29h8.22v30.72q0 2.4-.54 4.56-.54 2.16-1.77 3.81t-3.15 2.64q-1.92.99-4.68.99-1.74 0-3.78-.36t-3.54-1.02l1.8-6.72q1.56.78 3.54.78 2.52 0 3.21-1.86t.69-4.92Zm33.9 2.1q0-1.92-1.41-3.12-1.41-1.2-3.54-2.19t-4.62-2.04q-2.49-1.05-4.62-2.58t-3.54-3.81q-1.41-2.28-1.41-5.82 0-3.06 1.02-5.31 1.02-2.25 2.91-3.75 1.89-1.5 4.47-2.22 2.58-.72 5.76-.72 3.66 0 6.9.63t5.34 1.83l-2.58 6.9q-1.32-.84-3.96-1.53-2.64-.69-5.7-.69-2.88 0-4.41 1.14-1.53 1.14-1.53 3.06 0 1.8 1.41 3t3.54 2.22q2.13 1.02 4.62 2.1t4.62 2.61q2.13 1.53 3.54 3.78 1.41 2.25 1.41 5.61 0 3.36-1.11 5.79t-3.12 4.05q-2.01 1.62-4.86 2.4-2.85.78-6.27.78-4.5 0-7.92-.84t-5.04-1.68L38 62.3q.66.36 1.71.78 1.05.42 2.37.78 1.32.36 2.79.6t3.03.24q3.66 0 5.61-1.23 1.95-1.23 1.95-3.75ZM66.2 47.6V41h4.14v-1.68q0-5.7 2.4-8.25t6.96-2.55q4.8 0 7.98 1.14l-1.5 6.24q-1.38-.48-2.43-.63-1.05-.15-2.19-.15-1.2 0-1.89.36t-1.02 1.11q-.33.75-.42 1.86-.09 1.11-.09 2.55h6.6v6.6h-6.6V71h-7.8V47.6H66.2Z" fill="#fff"/></svg>