<svg xmlns="http://www.w3.org/2000/svg" width="256" height="256" viewBox="0 0 100 100"><rect width="100" height="100" rx="0" fill="#f6aa25"></rect><path d="M21.56 57.62L21.56 29L29.78 29L29.78 59.72Q29.78 62.12 29.24 64.28Q28.70 66.44 27.47 68.09Q26.24 69.74 24.32 70.73Q22.40 71.72 19.64 71.72L19.64 71.72Q17.90 71.72 15.86 71.36Q13.82 71 12.32 70.34L12.32 70.34L14.12 63.62Q15.68 64.40 17.66 64.40L17.66 64.40Q20.18 64.40 20.87 62.54Q21.56 60.68 21.56 57.62L21.56 57.62ZM55.46 59.72L55.46 59.72Q55.46 57.80 54.05 56.60Q52.64 55.40 50.51 54.41Q48.38 53.42 45.89 52.37Q43.40 51.32 41.27 49.79Q39.14 48.26 37.73 45.98Q36.32 43.70 36.32 40.16L36.32 40.16Q36.32 37.10 37.34 34.85Q38.36 32.60 40.25 31.10Q42.14 29.60 44.72 28.88Q47.30 28.16 50.48 28.16L50.48 28.16Q54.14 28.16 57.38 28.79Q60.62 29.42 62.72 30.62L62.72 30.62L60.14 37.52Q58.82 36.68 56.18 35.99Q53.54 35.30 50.48 35.30L50.48 35.30Q47.60 35.30 46.07 36.44Q44.54 37.58 44.54 39.50L44.54 39.50Q44.54 41.30 45.95 42.50Q47.36 43.70 49.49 44.72Q51.62 45.74 54.11 46.82Q56.60 47.90 58.73 49.43Q60.86 50.96 62.27 53.21Q63.68 55.46 63.68 58.82L63.68 58.82Q63.68 62.18 62.57 64.61Q61.46 67.04 59.45 68.66Q57.44 70.28 54.59 71.06Q51.74 71.84 48.32 71.84L48.32 71.84Q43.82 71.84 40.40 71Q36.98 70.16 35.36 69.32L35.36 69.32L38.00 62.30Q38.66 62.66 39.71 63.08Q40.76 63.50 42.08 63.86Q43.40 64.22 44.87 64.46Q46.34 64.70 47.90 64.70L47.90 64.70Q51.56 64.70 53.51 63.47Q55.46 62.24 55.46 59.72ZM66.20 47.60L66.20 41L70.34 41L70.34 39.32Q70.34 33.62 72.74 31.07Q75.14 28.52 79.70 28.52L79.70 28.52Q84.50 28.52 87.68 29.66L87.68 29.66L86.18 35.90Q84.80 35.42 83.75 35.27Q82.70 35.12 81.56 35.12L81.56 35.12Q80.36 35.12 79.67 35.48Q78.98 35.84 78.65 36.59Q78.32 37.34 78.23 38.45Q78.14 39.56 78.14 41L78.14 41L84.74 41L84.74 47.60L78.14 47.60L78.14 71L70.34 71L70.34 47.60L66.20 47.60Z" fill="#fff"></path></svg>